# File created by Blade
# Date/Time:  Fri Jan 16 17:18:57 2015
#---------------------------------------------------------
:version 1.10
:name HOM
:units
  mass 1.0
  length 1.000000
  angle deg
:documentation
     Acclaim Skeleton File
:root
   axis xyz
   order TX TY TZ RX RY RZ
   position 0.000000 0.000000 0.000000
   orientation 0 0 0
:bonedata
   begin
      id 1
      name Spine_dum
      direction 0.000000 1.000000 0.000000
      length 7.170412
      axis 0.0 0.0 0.0 xyz
   end
   begin
      id 2
      name LeftUpLeg_dum
      direction 1.000000 0.000000 0.000000
      length 4.318350
      axis 0.0 0.0 0.0 xyz
   end
   begin
      id 3
      name RightUpLeg_dum
      direction -1.000000 0.000000 0.000000
      length 4.318350
      axis 0.0 0.0 0.0 xyz
   end
   begin
      id 4
      name Spine
      direction 0.000000 1.000000 0.000000
      length 0.000000
      axis 0.0 0.0 0.0 xyz
      dof rx ry rz
   end
   begin
      id 5
      name Spine_dum1
      direction 0.000000 1.000000 0.000000
      length 14.276153
      axis 0.0 0.0 0.0 xyz
   end
   begin
      id 6
      name Spine_dum2
      direction 0.000000 1.000000 0.000000
      length 10.718243
      axis 0.0 0.0 0.0 xyz
   end
   begin
      id 7
      name Spine_dum3
      direction 0.000000 1.000000 0.000000
      length 10.718243
      axis 0.0 0.0 0.0 xyz
   end
   begin
      id 8
      name Head
      direction 0.000000 1.000000 0.000000
      length 4.527550
      axis 0.0 0.0 0.0 xyz
      dof rx ry rz
   end
   begin
      id 9
      name LeftShoulder
      direction 1.000000 0.000000 0.000000
      length 7.058872
      axis 0.0 0.0 -90.0 xyz
      dof rx ry rz
   end
   begin
      id 10
      name LeftArm
      direction 1.000000 0.000000 0.000000
      length 10.955525
      axis 0.0 0.0 -90.0 xyz
      dof rx ry rz
   end
   begin
      id 11
      name LeftForeArm
      direction 1.000000 0.000000 0.000000
      length 8.193716
      axis 0.0 0.0 -90.0 xyz
      dof ry rz rx
   end
   begin
      id 12
      name LeftHand
      direction 0.000000 0.000000 0.000000
      length 0.000000
      axis 0.0 0.0 -90.0 xyz
      dof rx ry rz
   end
   begin
      id 13
      name LeftHand_dum1
      direction 0.000000 0.000000 0.000000
      length 0.000000
      axis 0.0 0.0 -90.0 xyz
   end
   begin
      id 14
      name LeftHand_dum2
      direction 1.000000 0.000000 0.000000
      length 3.937000
      axis 0.0 0.0 -90.0 xyz
   end
   begin
      id 15
      name LeftHandThumb1
      direction 0.000000 0.000000 1.000000
      length 3.937000
      axis 0.0 0.0 -90.0 xyz
      dof rx rz ry
   end
   begin
      id 16
      name RightShoulder
      direction -1.000000 0.000000 0.000000
      length 7.058872
      axis 0.0 0.0 90.0 xyz
      dof rx ry rz
   end
   begin
      id 17
      name RightArm
      direction -1.000000 0.000000 0.000000
      length 10.955525
      axis 0.0 0.0 90.0 xyz
      dof rx ry rz
   end
   begin
      id 18
      name RightForeArm
      direction -1.000000 0.000000 0.000000
      length 8.193716
      axis 0.0 0.0 90.0 xyz
      dof ry rz rx
   end
   begin
      id 19
      name RightHand
      direction 0.000000 0.000000 0.000000
      length 0.000000
      axis 0.0 0.0 90.0 xyz
      dof rx ry rz
   end
   begin
      id 20
      name RightHand_dum1
      direction 0.000000 0.000000 0.000000
      length 0.000000
      axis 0.0 0.0 90.0 xyz
   end
   begin
      id 21
      name RightHand_dum2
      direction -1.000000 0.000000 0.000000
      length 3.937000
      axis 0.0 0.0 90.0 xyz
   end
   begin
      id 22
      name RightHandThumb1
      direction 0.000000 0.000000 1.000000
      length 3.937000
      axis 0.0 0.0 90.0 xyz
      dof rx rz ry
   end
   begin
      id 23
      name LeftUpLeg
      direction 0.000000 -1.000000 0.000000
      length 17.323638
      axis 0.0 0.0 0.0 xyz
      dof rx ry rz
   end
   begin
      id 24
      name LeftLeg
      direction 0.000000 -1.000000 0.000000
      length 16.270368
      axis 0.0 0.0 0.0 xyz
      dof rx ry rz
   end
   begin
      id 25
      name LeftFoot
      direction 0.000000 -0.258819 0.965926
      length 4.922846
      axis 15.0 0.0 0.0 xyz
      dof rx ry rz
   end
   begin
      id 26
      name LeftToeBase
      direction 0.000000 0.000000 1.000000
      length 2.952750
      axis 0.0 0.0 0.0 xyz
      dof rx ry rz
   end
   begin
      id 27
      name RightUpLeg
      direction 0.000000 -1.000000 0.000000
      length 17.323638
      axis 0.0 0.0 0.0 xyz
      dof rx ry rz
   end
   begin
      id 28
      name RightLeg
      direction 0.000000 -1.000000 0.000000
      length 16.270368
      axis 0.0 0.0 0.0 xyz
      dof rx ry rz
   end
   begin
      id 29
      name RightFoot
      direction 0.000000 -0.258819 0.965926
      length 4.922846
      axis 15.0 0.0 0.0 xyz
      dof rx ry rz
   end
   begin
      id 30
      name RightToeBase
      direction 0.000000 0.000000 1.000000
      length 2.952750
      axis 0.0 0.0 0.0 xyz
      dof rx ry rz
   end
:hierarchy
   begin
      root Spine_dum LeftUpLeg_dum RightUpLeg_dum
      Spine_dum Spine
      LeftUpLeg_dum LeftUpLeg
      RightUpLeg_dum RightUpLeg
      Spine Spine_dum1 Spine_dum2 Spine_dum3
      Spine_dum1 Head
      Spine_dum2 LeftShoulder
      Spine_dum3 RightShoulder
      LeftShoulder LeftArm
      LeftArm LeftForeArm
      LeftForeArm LeftHand
      LeftHand LeftHand_dum1 LeftHand_dum2
      LeftHand_dum1 LeftHandThumb1
      RightShoulder RightArm
      RightArm RightForeArm
      RightForeArm RightHand
      RightHand RightHand_dum1 RightHand_dum2
      RightHand_dum1 RightHandThumb1
      LeftUpLeg LeftLeg
      LeftLeg LeftFoot
      LeftFoot LeftToeBase
      RightUpLeg RightLeg
      RightLeg RightFoot
      RightFoot RightToeBase
   end

# File created by Blade
# Date/Time:  Fri Jan 16 17:19:08 2015
# Frame Rate: 120.000 fps
#------------------------------------------------------
:FULLY-SPECIFIED
:DEGREES
1225
root -5.467509 35.196773 -9.473744 -1.673773 -6.863335 -6.186090
Spine -0.782341 1.108446 10.260656
Head 4.324024 1.195605 -11.090940
LeftShoulder -20.057282 13.487653 -16.717058
LeftArm 21.181739 -5.493818 -73.539684
LeftForeArm 13.105783 -0.000000 10.039110
LeftHand 0.222707 -0.000000 -5.701797
LeftHandThumb1 -26.253704 0.000000 33.147579
RightShoulder 0.375338 8.739035 -3.044145
RightArm -3.963467 25.774266 39.645811
RightForeArm 35.200078 -0.000000 46.767132
RightHand 12.043379 -0.000000 4.687696
RightHandThumb1 -24.326973 -0.000000 -32.862282
LeftUpLeg 13.118070 15.435077 7.775147
LeftLeg -9.366784 -0.000000 0.000000
LeftFoot -16.408320 28.005135 -8.907542
LeftToeBase 22.667017 -0.000000 -0.000000
RightUpLeg 9.462983 -2.850660 4.543710
RightLeg -5.544121 -0.000000 0.000000
RightFoot -4.032497 -28.335030 3.339557
RightToeBase 13.573924 -0.000000 -0.000000
1226
root -5.472885 35.196969 -9.471711 -1.688889 -6.835880 -6.196779
Spine -0.774066 1.075879 10.260307
Head 4.307647 1.266168 -11.044111
LeftShoulder -20.070738 13.472338 -16.684129
LeftArm 21.175674 -5.516858 -73.556536
LeftForeArm 13.141676 -0.000000 10.031313
LeftHand 0.255678 -0.000000 -5.632713
LeftHandThumb1 -26.253704 0.000000 33.147579
RightShoulder 0.423375 8.826868 -2.974108
RightArm -3.985274 25.714272 39.720561
RightForeArm 34.134934 -0.000000 45.192401
RightHand 11.779953 -0.000000 4.605980
RightHandThumb1 -24.326973 -0.000000 -32.862282
LeftUpLeg 13.133094 15.436933 7.802593
LeftLeg -9.366297 -0.000000 0.000000
LeftFoot -16.396370 27.976747 -8.880654
LeftToeBase 22.684765 -0.000000 -0.000000
RightUpLeg 9.505672 -2.799367 4.566692
RightLeg -5.580457 -0.000000 0.000000
RightFoot -4.027372 -28.385478 3.377721
RightToeBase 13.559980 -0.000000 -0.000000
1227
root -5.482099 35.196922 -9.462112 -1.737728 -6.811459 -6.217436
Spine -0.746940 1.041528 10.256585
Head 4.312654 1.317157 -10.961281
LeftShoulder -20.081343 13.492576 -16.642730
LeftArm 21.171558 -5.508941 -73.562266
LeftForeArm 13.133710 -0.000000 10.041409
LeftHand 0.237014 0.000000 -5.618224
LeftHandThumb1 -26.253704 0.000000 33.147579
RightShoulder 0.453295 8.877901 -2.914200
RightArm -3.975059 25.532571 39.809136
RightForeArm 33.529814 -0.000000 43.631471
RightHand 11.457887 -0.000000 4.521284
RightHandThumb1 -24.326973 -0.000000 -32.862282
LeftUpLeg 13.217347 15.489472 7.869157
LeftLeg -9.405595 -0.000000 0.000000
LeftFoot -16.376133 27.898915 -8.874581
LeftToeBase 22.717340 -0.000000 -0.000000
RightUpLeg 9.598711 -2.802211 4.597673
RightLeg -5.627799 -0.000000 0.000000
RightFoot -4.032091 -28.389595 3.445677
RightToeBase 13.530786 -0.000000 -0.000000
1228
root -5.489471 35.197016 -9.454795 -1.782674 -6.768029 -6.229731
Spine -0.723794 0.998884 10.247016
Head 4.328714 1.350146 -10.876995
LeftShoulder -20.080575 13.508010 -16.615958
LeftArm 21.178924 -5.513357 -73.561418
LeftForeArm 13.143569 -0.000000 10.027860
LeftHand 0.228214 -0.000000 -5.672173
LeftHandThumb1 -26.253704 0.000000 33.147579
RightShoulder 0.468098 8.952892 -2.854312
RightArm -3.962377 25.275250 39.890987
RightForeArm 33.276004 -0.000000 42.023759
RightHand 11.188075 -0.000000 4.432495
RightHandThumb1 -24.326973 -0.000000 -32.862282
LeftUpLeg 13.273483 15.489509 7.912755
LeftLeg -9.415255 -0.000000 0.000000
LeftFoot -16.351260 27.853113 -8.866838
LeftToeBase 22.681223 -0.000000 -0.000000
RightUpLeg 9.677416 -2.849164 4.616703
RightLeg -5.663706 -0.000000 0.000000
RightFoot -4.018492 -28.396091 3.444128
RightToeBase 13.547247 -0.000000 -0.000000
1229
root -5.472715 35.195782 -9.489830 -1.542308 -6.850147 -6.174885
Spine -0.929190 1.115745 10.233145
Head 4.299908 1.396295 -10.876987
LeftShoulder -20.068810 13.466465 -16.646916
LeftArm 21.160991 -5.522342 -73.551481
LeftForeArm 13.114532 -0.000000 10.014380
LeftHand 0.276663 -0.000000 -5.661208
LeftHandThumb1 -26.253704 0.000000 33.147579
RightShoulder 0.509380 9.016104 -2.852598
RightArm -3.949016 25.250303 40.041037
RightForeArm 33.020952 -0.000000 40.526242
RightHand 10.874968 -0.000000 4.462862
RightHandThumb1 -24.326973 -0.000000 -32.862282
LeftUpLeg 12.926169 15.504016 7.736147
LeftLeg -9.320911 -0.000000 0.000000
LeftFoot -16.399540 27.992693 -8.831441
LeftToeBase 22.689162 -0.000000 -0.000000
RightUpLeg 9.284276 -2.686867 4.556861
RightLeg -5.486973 -0.000000 0.000000
RightFoot -4.101957 -28.411328 3.396807
RightToeBase 13.578857 -0.000000 -0.000000
1230
root -5.475439 35.195494 -9.494586 -1.492478 -6.848835 -6.176400
Spine -0.990798 1.119528 10.218386
Head 4.309583 1.435447 -10.769722
LeftShoulder -20.081387 13.484112 -16.637378
LeftArm 21.176026 -5.504978 -73.538537
LeftForeArm 13.072152 0.000000 10.004618
LeftHand 0.248706 -0.000000 -5.669856
LeftHandThumb1 -26.253704 0.000000 33.147579
RightShoulder 0.517002 9.046466 -2.841033
RightArm -3.894522 24.831494 40.136179
RightForeArm 33.075563 0.000000 38.888763
RightHand 10.680373 -0.000000 4.467120
RightHandThumb1 -24.326973 -0.000000 -32.862282
LeftUpLeg 12.860680 15.511780 7.725664
LeftLeg -9.308821 -0.000000 0.000000
LeftFoot -16.397721 28.002111 -8.814853
LeftToeBase 22.701460 -0.000000 -0.000000
RightUpLeg 9.213838 -2.660631 4.565763
RightLeg -5.455819 -0.000000 0.000000
RightFoot -4.113938 -28.415792 3.375935
RightToeBase 13.588027 -0.000000 -0.000000
1231
root -5.480599 35.195516 -9.492786 -1.499000 -6.824207 -6.185494
Spine -1.001388 1.108969 10.213105
Head 4.333322 1.439665 -10.676147
LeftShoulder -20.061686 13.500621 -16.625323
LeftArm 21.177422 -5.549232 -73.539295
LeftForeArm 13.113209 0.000000 9.994341
LeftHand 0.270563 -0.000000 -5.693242
LeftHandThumb1 -26.253704 0.000000 33.147579
RightShoulder 0.511174 9.016583 -2.814596
RightArm -3.839587 24.647722 40.269060
RightForeArm 32.814615 -0.000000 37.369394
RightHand 10.441966 0.000000 4.589719
RightHandThumb1 -24.326973 -0.000000 -32.862282
LeftUpLeg 12.870624 15.510316 7.748997
LeftLeg -9.315676 -0.000000 0.000000
LeftFoot -16.381644 27.978263 -8.793950
LeftToeBase 22.702087 -0.000000 -0.000000
RightUpLeg 9.234571 -2.690117 4.579485
RightLeg -5.471219 -0.000000 0.000000
RightFoot -4.107462 -28.407555 3.386209
RightToeBase 13.576849 -0.000000 -0.000000
1232
root -5.485166 35.195045 -9.491650 -1.502848 -6.809947 -6.188152
Spine -1.003630 1.095824 10.190141
Head 4.335813 1.435382 -10.549762
LeftShoulder -20.061995 13.490340 -16.598688
LeftArm 21.162805 -5.546579 -73.529637
LeftForeArm 13.120888 -0.000000 9.989290
LeftHand 0.264941 -0.000000 -5.731135
LeftHandThumb1 -26.253704 0.000000 33.147579
RightShoulder 0.513052 8.992823 -2.797967
RightArm -3.788564 24.493376 40.429697
RightForeArm 32.299554 0.000000 35.920495
RightHand 10.143939 -0.000000 4.596124
RightHandThumb1 -24.326973 -0.000000 -32.862282
LeftUpLeg 12.876250 15.511416 7.761092
LeftLeg -9.320490 -0.000000 0.000000
LeftFoot -16.393850 27.972638 -8.809562
LeftToeBase 22.754098 -0.000000 -0.000000
RightUpLeg 9.242140 -2.719393 4.587526
RightLeg -5.470201 -0.000000 0.000000
RightFoot -4.126679 -28.389481 3.396147
RightToeBase 13.580192 -0.000000 -0.000000
1233
root -5.489460 35.194589 -9.490132 -1.506591 -6.788974 -6.193797
Spine -1.013911 1.088574 10.176151
Head 4.360709 1.420811 -10.435047
LeftShoulder -20.034470 13.505182 -16.579153
LeftArm 21.150657 -5.525303 -73.504812
LeftForeArm 13.078596 -0.000000 9.991437
LeftHand 0.246526 -0.000000 -5.747222
LeftHandThumb1 -26.253704 0.000000 33.147579
RightShoulder 0.499471 8.921551 -2.803517
RightArm -3.731497 24.393693 40.610531
RightForeArm 31.638098 -0.000000 34.522124
RightHand 9.865582 -0.000000 4.672712
RightHandThumb1 -24.326973 -0.000000 -32.862282
LeftUpLeg 12.877651 15.512095 7.776100
LeftLeg -9.320180 -0.000000 0.000000
LeftFoot -16.381026 27.956363 -8.773871
LeftToeBase 22.731985 -0.000000 -0.000000
RightUpLeg 9.255588 -2.729390 4.598741
RightLeg -5.479022 -0.000000 0.000000
RightFoot -4.127561 -28.383434 3.433475
RightToeBase 13.526149 -0.000000 -0.000000
1234
root -5.493684 35.194241 -9.488672 -1.507755 -6.781669 -6.197212
Spine -1.024376 1.101221 10.160259
Head 4.379884 1.364797 -10.323174
LeftShoulder -20.000219 13.522628 -16.560077
LeftArm 21.145317 -5.561090 -73.509496
LeftForeArm 13.121395 -0.000000 9.976271
LeftHand 0.230287 -0.000000 -5.814563
LeftHandThumb1 -26.253704 0.000000 33.147579
RightShoulder 0.489695 8.893532 -2.829850
RightArm -3.732245 24.388819 40.804509
RightForeArm 30.757191 -0.000000 33.184292
RightHand 9.525167 -0.000000 4.656922
RightHandThumb1 -24.326973 -0.000000 -32.862282
LeftUpLeg 12.881010 15.499277 7.785927
LeftLeg -9.319491 -0.000000 0.000000
LeftFoot -16.390090 27.958116 -8.783563
LeftToeBase 22.730456 -0.000000 -0.000000
RightUpLeg 9.258268 -2.755218 4.606023
RightLeg -5.475067 -0.000000 0.000000
RightFoot -4.126614 -28.374256 3.391287
RightToeBase 13.579631 -0.000000 -0.000000
1235
root -5.498588 35.194122 -9.487367 -1.511063 -6.774717 -6.203393
Spine -1.027896 1.101048 10.142131
Head 4.394290 1.303159 -10.198179
LeftShoulder -19.982382 13.533681 -16.541343
LeftArm 21.142355 -5.577395 -73.505242
LeftForeArm 13.131201 0.000000 9.963302
LeftHand 0.257571 -0.000000 -5.738271
LeftHandThumb1 -26.253704 0.000000 33.147579
RightShoulder 0.469144 8.854004 -2.855706
RightArm -3.683979 24.187716 40.974757
RightForeArm 29.847511 -0.000000 31.801773
RightHand 9.319017 -0.000000 4.614894
RightHandThumb1 -24.326973 -0.000000 -32.862282
LeftUpLeg 12.885234 15.479863 7.800224
LeftLeg -9.317586 -0.000000 0.000000
LeftFoot -16.393873 27.964799 -8.782103
LeftToeBase 22.778132 -0.000000 -0.000000
RightUpLeg 9.265148 -2.762858 4.616243
RightLeg -5.471402 -0.000000 0.000000
RightFoot -4.134447 -28.358804 3.402469
RightToeBase 13.568059 -0.000000 -0.000000
1236
root -5.503052 35.194068 -9.485200 -1.523323 -6.768190 -6.206585
Spine -1.019721 1.079488 10.119533
Head 4.399232 1.247011 -10.068874
LeftShoulder -19.963805 13.547085 -16.517860
LeftArm 21.122633 -5.588606 -73.506482
LeftForeArm 13.124020 -0.000000 9.970999
LeftHand 0.252094 -0.000000 -5.705912
LeftHandThumb1 -26.253704 0.000000 33.147579
RightShoulder 0.475094 8.846248 -2.873940
RightArm -3.694455 23.941754 41.098027
RightForeArm 29.091825 -0.000000 30.448010
RightHand 9.008637 -0.000000 4.754167
RightHandThumb1 -24.326973 -0.000000 -32.862282
LeftUpLeg 12.903931 15.467709 7.813913
LeftLeg -9.324785 -0.000000 0.000000
LeftFoot -16.395827 27.966657 -8.785357
LeftToeBase 22.773682 -0.000000 -0.000000
RightUpLeg 9.277335 -2.785928 4.621783
RightLeg -5.459385 -0.000000 0.000000
RightFoot -4.156209 -28.331923 3.415254
RightToeBase 13.573740 -0.000000 -0.000000
1237
root -5.508115 35.193767 -9.484298 -1.531663 -6.755724 -6.213040
Spine -1.018333 1.067252 10.098582
Head 4.420369 1.189496 -9.946205
LeftShoulder -19.965514 13.572262 -16.507249
LeftArm 21.144307 -5.583298 -73.504030
LeftForeArm 13.131458 -0.000000 9.963256
LeftHand 0.229326 -0.000000 -5.664163
LeftHandThumb1 -26.253704 0.000000 33.147579
RightShoulder 0.468120 8.837428 -2.899382
RightArm -3.707973 23.692076 41.251446
RightForeArm 28.320365 -0.000000 29.138039
RightHand 8.755637 -0.000000 4.663536
RightHandThumb1 -24.326973 -0.000000 -32.862282
LeftUpLeg 12.908430 15.432315 7.825082
LeftLeg -9.319262 -0.000000 0.000000
LeftFoot -16.395300 28.001304 -8.779654
LeftToeBase 22.756384 -0.000000 -0.000000
RightUpLeg 9.287837 -2.809983 4.633075
RightLeg -5.453842 -0.000000 0.000000
RightFoot -4.172707 -28.327223 3.444760
RightToeBase 13.532007 -0.000000 -0.000000
